<mxfile host="Electron" agent="Mozilla/5.0 (Macintosh; Intel Mac OS X 10_15_7) AppleWebKit/537.36 (KHTML, like Gecko) draw.io/26.2.15 Chrome/134.0.6998.205 Electron/35.2.1 Safari/537.36" version="26.2.15">
  <diagram id="C5RBs43oDa-KdzZeNtuy" name="Page-1">
    <mxGraphModel dx="2160" dy="1955" grid="1" gridSize="10" guides="1" tooltips="1" connect="1" arrows="1" fold="1" page="1" pageScale="1" pageWidth="827" pageHeight="1169" math="0" shadow="0">
      <root>
        <mxCell id="WIyWlLk6GJQsqaUBKTNV-0" />
        <mxCell id="WIyWlLk6GJQsqaUBKTNV-1" parent="WIyWlLk6GJQsqaUBKTNV-0" />
        <mxCell id="WEpDXw4xcwfbe39GhyjO-1" value="" style="strokeWidth=2;html=1;shape=mxgraph.flowchart.start_2;whiteSpace=wrap;" parent="WIyWlLk6GJQsqaUBKTNV-1" vertex="1">
          <mxGeometry x="635" y="-120" width="40" height="40" as="geometry" />
        </mxCell>
        <mxCell id="WEpDXw4xcwfbe39GhyjO-2" value="" style="endArrow=classic;html=1;rounded=0;" parent="WIyWlLk6GJQsqaUBKTNV-1" source="WEpDXw4xcwfbe39GhyjO-1" target="WEpDXw4xcwfbe39GhyjO-3" edge="1">
          <mxGeometry width="50" height="50" relative="1" as="geometry">
            <mxPoint x="645" y="80" as="sourcePoint" />
            <mxPoint x="655" y="10" as="targetPoint" />
          </mxGeometry>
        </mxCell>
        <mxCell id="WEpDXw4xcwfbe39GhyjO-3" value="Zobrazí produkty" style="rounded=1;whiteSpace=wrap;html=1;absoluteArcSize=1;arcSize=14;strokeWidth=2;" parent="WIyWlLk6GJQsqaUBKTNV-1" vertex="1">
          <mxGeometry x="590" width="130" height="40" as="geometry" />
        </mxCell>
        <mxCell id="WEpDXw4xcwfbe39GhyjO-9" style="edgeStyle=orthogonalEdgeStyle;rounded=0;orthogonalLoop=1;jettySize=auto;html=1;" parent="WIyWlLk6GJQsqaUBKTNV-1" source="WEpDXw4xcwfbe39GhyjO-6" target="WEpDXw4xcwfbe39GhyjO-8" edge="1">
          <mxGeometry relative="1" as="geometry" />
        </mxCell>
        <mxCell id="WEpDXw4xcwfbe39GhyjO-6" value="Prochází produkty" style="rounded=1;whiteSpace=wrap;html=1;absoluteArcSize=1;arcSize=14;strokeWidth=2;" parent="WIyWlLk6GJQsqaUBKTNV-1" vertex="1">
          <mxGeometry x="290" y="80" width="130" height="40" as="geometry" />
        </mxCell>
        <mxCell id="WEpDXw4xcwfbe39GhyjO-7" value="" style="endArrow=classic;html=1;rounded=0;" parent="WIyWlLk6GJQsqaUBKTNV-1" source="WEpDXw4xcwfbe39GhyjO-3" target="WEpDXw4xcwfbe39GhyjO-6" edge="1">
          <mxGeometry width="50" height="50" relative="1" as="geometry">
            <mxPoint x="430" y="30" as="sourcePoint" />
            <mxPoint x="360" y="20" as="targetPoint" />
            <Array as="points">
              <mxPoint x="355" y="20" />
            </Array>
          </mxGeometry>
        </mxCell>
        <mxCell id="WEpDXw4xcwfbe39GhyjO-11" style="edgeStyle=orthogonalEdgeStyle;rounded=0;orthogonalLoop=1;jettySize=auto;html=1;" parent="WIyWlLk6GJQsqaUBKTNV-1" source="WEpDXw4xcwfbe39GhyjO-8" target="WEpDXw4xcwfbe39GhyjO-10" edge="1">
          <mxGeometry relative="1" as="geometry" />
        </mxCell>
        <mxCell id="WEpDXw4xcwfbe39GhyjO-15" value="Nenašel produkt" style="edgeLabel;html=1;align=center;verticalAlign=middle;resizable=0;points=[];" parent="WEpDXw4xcwfbe39GhyjO-11" vertex="1" connectable="0">
          <mxGeometry x="-0.9135" y="-2" relative="1" as="geometry">
            <mxPoint x="-23" y="-18" as="offset" />
          </mxGeometry>
        </mxCell>
        <mxCell id="WEpDXw4xcwfbe39GhyjO-24" style="edgeStyle=orthogonalEdgeStyle;rounded=0;orthogonalLoop=1;jettySize=auto;html=1;" parent="WIyWlLk6GJQsqaUBKTNV-1" source="WEpDXw4xcwfbe39GhyjO-8" target="WEpDXw4xcwfbe39GhyjO-23" edge="1">
          <mxGeometry relative="1" as="geometry" />
        </mxCell>
        <mxCell id="WEpDXw4xcwfbe39GhyjO-25" value="Našel produkt" style="edgeLabel;html=1;align=center;verticalAlign=middle;resizable=0;points=[];" parent="WEpDXw4xcwfbe39GhyjO-24" vertex="1" connectable="0">
          <mxGeometry x="-0.6505" y="1" relative="1" as="geometry">
            <mxPoint x="-31" y="-19" as="offset" />
          </mxGeometry>
        </mxCell>
        <mxCell id="WEpDXw4xcwfbe39GhyjO-8" value="" style="strokeWidth=2;html=1;shape=mxgraph.flowchart.decision;whiteSpace=wrap;strokeColor=default;align=center;verticalAlign=middle;fontFamily=Helvetica;fontSize=12;fontColor=default;fillColor=default;" parent="WIyWlLk6GJQsqaUBKTNV-1" vertex="1">
          <mxGeometry x="305" y="170" width="100" height="100" as="geometry" />
        </mxCell>
        <mxCell id="WEpDXw4xcwfbe39GhyjO-12" style="edgeStyle=orthogonalEdgeStyle;rounded=0;orthogonalLoop=1;jettySize=auto;html=1;" parent="WIyWlLk6GJQsqaUBKTNV-1" source="WEpDXw4xcwfbe39GhyjO-10" target="WEpDXw4xcwfbe39GhyjO-6" edge="1">
          <mxGeometry relative="1" as="geometry" />
        </mxCell>
        <mxCell id="WEpDXw4xcwfbe39GhyjO-13" value="Pokračovat" style="edgeLabel;html=1;align=center;verticalAlign=middle;resizable=0;points=[];" parent="WEpDXw4xcwfbe39GhyjO-12" vertex="1" connectable="0">
          <mxGeometry x="-0.7714" y="-1" relative="1" as="geometry">
            <mxPoint x="14" y="-13" as="offset" />
          </mxGeometry>
        </mxCell>
        <mxCell id="WEpDXw4xcwfbe39GhyjO-10" value="" style="strokeWidth=2;html=1;shape=mxgraph.flowchart.decision;whiteSpace=wrap;" parent="WIyWlLk6GJQsqaUBKTNV-1" vertex="1">
          <mxGeometry x="50" y="50" width="100" height="100" as="geometry" />
        </mxCell>
        <mxCell id="WEpDXw4xcwfbe39GhyjO-17" value="" style="strokeWidth=2;html=1;shape=mxgraph.flowchart.start_2;whiteSpace=wrap;" parent="WIyWlLk6GJQsqaUBKTNV-1" vertex="1">
          <mxGeometry x="-80" y="720" width="40" height="40" as="geometry" />
        </mxCell>
        <mxCell id="WEpDXw4xcwfbe39GhyjO-18" value="" style="strokeWidth=2;html=1;shape=mxgraph.flowchart.start_2;whiteSpace=wrap;fillColor=#000000;" parent="WIyWlLk6GJQsqaUBKTNV-1" vertex="1">
          <mxGeometry x="-72.5" y="727.5" width="25" height="25" as="geometry" />
        </mxCell>
        <mxCell id="WEpDXw4xcwfbe39GhyjO-21" style="edgeStyle=orthogonalEdgeStyle;rounded=0;orthogonalLoop=1;jettySize=auto;html=1;entryX=0.5;entryY=0;entryDx=0;entryDy=0;entryPerimeter=0;" parent="WIyWlLk6GJQsqaUBKTNV-1" source="WEpDXw4xcwfbe39GhyjO-10" target="WEpDXw4xcwfbe39GhyjO-17" edge="1">
          <mxGeometry relative="1" as="geometry" />
        </mxCell>
        <mxCell id="WEpDXw4xcwfbe39GhyjO-22" value="Odejít" style="edgeLabel;html=1;align=center;verticalAlign=middle;resizable=0;points=[];" parent="WEpDXw4xcwfbe39GhyjO-21" vertex="1" connectable="0">
          <mxGeometry x="-0.88" y="-1" relative="1" as="geometry">
            <mxPoint x="24" y="-9" as="offset" />
          </mxGeometry>
        </mxCell>
        <mxCell id="WEpDXw4xcwfbe39GhyjO-35" style="edgeStyle=orthogonalEdgeStyle;rounded=0;orthogonalLoop=1;jettySize=auto;html=1;" parent="WIyWlLk6GJQsqaUBKTNV-1" source="WEpDXw4xcwfbe39GhyjO-23" target="WEpDXw4xcwfbe39GhyjO-26" edge="1">
          <mxGeometry relative="1" as="geometry">
            <Array as="points">
              <mxPoint x="655" y="450" />
            </Array>
          </mxGeometry>
        </mxCell>
        <mxCell id="WEpDXw4xcwfbe39GhyjO-23" value="Zobrazí detaily" style="rounded=1;whiteSpace=wrap;html=1;absoluteArcSize=1;arcSize=14;strokeWidth=2;" parent="WIyWlLk6GJQsqaUBKTNV-1" vertex="1">
          <mxGeometry x="590" y="292.5" width="130" height="40" as="geometry" />
        </mxCell>
        <mxCell id="WEpDXw4xcwfbe39GhyjO-29" style="edgeStyle=orthogonalEdgeStyle;rounded=0;orthogonalLoop=1;jettySize=auto;html=1;" parent="WIyWlLk6GJQsqaUBKTNV-1" source="WEpDXw4xcwfbe39GhyjO-26" target="WEpDXw4xcwfbe39GhyjO-28" edge="1">
          <mxGeometry relative="1" as="geometry">
            <Array as="points">
              <mxPoint x="355" y="660" />
            </Array>
          </mxGeometry>
        </mxCell>
        <mxCell id="WEpDXw4xcwfbe39GhyjO-30" value="Přidá produkt&lt;div&gt;do košíku&lt;/div&gt;" style="edgeLabel;html=1;align=center;verticalAlign=middle;resizable=0;points=[];" parent="WEpDXw4xcwfbe39GhyjO-29" vertex="1" connectable="0">
          <mxGeometry x="-0.7592" y="-1" relative="1" as="geometry">
            <mxPoint x="46" y="-38" as="offset" />
          </mxGeometry>
        </mxCell>
        <mxCell id="WEpDXw4xcwfbe39GhyjO-33" style="edgeStyle=orthogonalEdgeStyle;rounded=0;orthogonalLoop=1;jettySize=auto;html=1;" parent="WIyWlLk6GJQsqaUBKTNV-1" source="WEpDXw4xcwfbe39GhyjO-26" target="WEpDXw4xcwfbe39GhyjO-10" edge="1">
          <mxGeometry relative="1" as="geometry" />
        </mxCell>
        <mxCell id="WEpDXw4xcwfbe39GhyjO-34" value="&lt;span style=&quot;color: rgba(0, 0, 0, 0); font-family: monospace; font-size: 0px; text-align: start; background-color: rgb(27, 29, 30);&quot;&gt;%3CmxGraphModel%3E%3Croot%3E%3CmxCell%20id%3D%220%22%2F%3E%3CmxCell%20id%3D%221%22%20parent%3D%220%22%2F%3E%3CmxCell%20id%3D%222%22%20value%3D%22P%C5%99id%C3%A1%20produkt%26lt%3Bdiv%26gt%3Bdo%20ko%C5%A1%C3%ADku%26lt%3B%2Fdiv%26gt%3B%22%20style%3D%22edgeLabel%3Bhtml%3D1%3Balign%3Dcenter%3BverticalAlign%3Dmiddle%3Bresizable%3D0%3Bpoints%3D%5B%5D%3B%22%20vertex%3D%221%22%20connectable%3D%220%22%20parent%3D%221%22%3E%3CmxGeometry%20x%3D%22400.0322580645161%22%20y%3D%22509.74193548387075%22%20as%3D%22geometry%22%2F%3E%3C%2FmxCell%3E%3C%2Froot%3E%3C%2FmxGraphModel%3E&lt;/span&gt;" style="edgeLabel;html=1;align=center;verticalAlign=middle;resizable=0;points=[];" parent="WEpDXw4xcwfbe39GhyjO-33" vertex="1" connectable="0">
          <mxGeometry x="-0.9239" relative="1" as="geometry">
            <mxPoint x="7" y="-14" as="offset" />
          </mxGeometry>
        </mxCell>
        <mxCell id="wXYqyDLmdAE4K9i_KiuF-0" value="Nepřidá produkt&lt;div&gt;do košíku&lt;/div&gt;" style="edgeLabel;html=1;align=center;verticalAlign=middle;resizable=0;points=[];" vertex="1" connectable="0" parent="WEpDXw4xcwfbe39GhyjO-33">
          <mxGeometry x="-0.9291" y="1" relative="1" as="geometry">
            <mxPoint x="-7" y="-21" as="offset" />
          </mxGeometry>
        </mxCell>
        <mxCell id="WEpDXw4xcwfbe39GhyjO-26" value="" style="strokeWidth=2;html=1;shape=mxgraph.flowchart.decision;whiteSpace=wrap;strokeColor=default;align=center;verticalAlign=middle;fontFamily=Helvetica;fontSize=12;fontColor=default;fillColor=default;" parent="WIyWlLk6GJQsqaUBKTNV-1" vertex="1">
          <mxGeometry x="305" y="400" width="100" height="100" as="geometry" />
        </mxCell>
        <mxCell id="WEpDXw4xcwfbe39GhyjO-45" style="edgeStyle=orthogonalEdgeStyle;rounded=0;orthogonalLoop=1;jettySize=auto;html=1;" parent="WIyWlLk6GJQsqaUBKTNV-1" source="WEpDXw4xcwfbe39GhyjO-28" target="WEpDXw4xcwfbe39GhyjO-6" edge="1">
          <mxGeometry relative="1" as="geometry">
            <Array as="points">
              <mxPoint x="655" y="550" />
              <mxPoint x="470" y="550" />
              <mxPoint x="470" y="100" />
            </Array>
          </mxGeometry>
        </mxCell>
        <mxCell id="WEpDXw4xcwfbe39GhyjO-28" value="Přidání do košíku" style="rounded=1;whiteSpace=wrap;html=1;absoluteArcSize=1;arcSize=14;strokeWidth=2;" parent="WIyWlLk6GJQsqaUBKTNV-1" vertex="1">
          <mxGeometry x="590" y="640" width="130" height="40" as="geometry" />
        </mxCell>
        <mxCell id="WEpDXw4xcwfbe39GhyjO-40" value="" style="endArrow=none;html=1;rounded=0;" parent="WIyWlLk6GJQsqaUBKTNV-1" edge="1">
          <mxGeometry width="50" height="50" relative="1" as="geometry">
            <mxPoint x="-170" y="-260" as="sourcePoint" />
            <mxPoint x="-170" y="810" as="targetPoint" />
          </mxGeometry>
        </mxCell>
        <mxCell id="WEpDXw4xcwfbe39GhyjO-41" value="" style="endArrow=none;html=1;rounded=0;" parent="WIyWlLk6GJQsqaUBKTNV-1" edge="1">
          <mxGeometry width="50" height="50" relative="1" as="geometry">
            <mxPoint x="860" y="810" as="sourcePoint" />
            <mxPoint x="-170" y="810" as="targetPoint" />
          </mxGeometry>
        </mxCell>
        <mxCell id="WEpDXw4xcwfbe39GhyjO-42" value="" style="endArrow=none;html=1;rounded=0;" parent="WIyWlLk6GJQsqaUBKTNV-1" edge="1">
          <mxGeometry width="50" height="50" relative="1" as="geometry">
            <mxPoint x="860" y="-200" as="sourcePoint" />
            <mxPoint x="-170" y="-200" as="targetPoint" />
          </mxGeometry>
        </mxCell>
        <mxCell id="WEpDXw4xcwfbe39GhyjO-43" value="" style="endArrow=none;html=1;rounded=0;" parent="WIyWlLk6GJQsqaUBKTNV-1" edge="1">
          <mxGeometry width="50" height="50" relative="1" as="geometry">
            <mxPoint x="860" y="-260" as="sourcePoint" />
            <mxPoint x="860" y="810" as="targetPoint" />
          </mxGeometry>
        </mxCell>
        <mxCell id="WEpDXw4xcwfbe39GhyjO-46" value="" style="endArrow=none;html=1;rounded=0;" parent="WIyWlLk6GJQsqaUBKTNV-1" edge="1">
          <mxGeometry width="50" height="50" relative="1" as="geometry">
            <mxPoint x="520" y="810" as="sourcePoint" />
            <mxPoint x="530" y="-200" as="targetPoint" />
          </mxGeometry>
        </mxCell>
        <mxCell id="WEpDXw4xcwfbe39GhyjO-47" value="" style="endArrow=none;html=1;rounded=0;" parent="WIyWlLk6GJQsqaUBKTNV-1" edge="1">
          <mxGeometry width="50" height="50" relative="1" as="geometry">
            <mxPoint x="860" y="-150" as="sourcePoint" />
            <mxPoint x="-170" y="-150" as="targetPoint" />
          </mxGeometry>
        </mxCell>
        <mxCell id="WEpDXw4xcwfbe39GhyjO-49" value="&lt;font style=&quot;font-size: 30px;&quot;&gt;Zákazník&lt;/font&gt;" style="text;html=1;align=center;verticalAlign=middle;resizable=0;points=[];autosize=1;strokeColor=none;fillColor=none;" parent="WIyWlLk6GJQsqaUBKTNV-1" vertex="1">
          <mxGeometry x="105" y="-200" width="150" height="50" as="geometry" />
        </mxCell>
        <mxCell id="WEpDXw4xcwfbe39GhyjO-50" value="&lt;font style=&quot;font-size: 30px;&quot;&gt;Systém&lt;/font&gt;" style="text;html=1;align=center;verticalAlign=middle;resizable=0;points=[];autosize=1;strokeColor=none;fillColor=none;" parent="WIyWlLk6GJQsqaUBKTNV-1" vertex="1">
          <mxGeometry x="635" y="-200" width="120" height="50" as="geometry" />
        </mxCell>
        <mxCell id="WEpDXw4xcwfbe39GhyjO-51" value="" style="endArrow=none;html=1;rounded=0;" parent="WIyWlLk6GJQsqaUBKTNV-1" edge="1">
          <mxGeometry width="50" height="50" relative="1" as="geometry">
            <mxPoint x="860" y="-260" as="sourcePoint" />
            <mxPoint x="-170" y="-260" as="targetPoint" />
          </mxGeometry>
        </mxCell>
        <mxCell id="WEpDXw4xcwfbe39GhyjO-52" value="&lt;font style=&quot;font-size: 40px;&quot;&gt;&lt;b style=&quot;&quot;&gt;Používání e-shopu&lt;/b&gt;&lt;/font&gt;" style="text;html=1;align=center;verticalAlign=middle;resizable=0;points=[];autosize=1;strokeColor=none;fillColor=none;" parent="WIyWlLk6GJQsqaUBKTNV-1" vertex="1">
          <mxGeometry x="155" y="-265" width="380" height="60" as="geometry" />
        </mxCell>
      </root>
    </mxGraphModel>
  </diagram>
</mxfile>
